<svg xmlns="http://www.w3.org/2000/svg" xmlns:xlink="http://www.w3.org/1999/xlink" width="320" height="127" viewBox="0 0 320 127"><image overflow="visible" width="2000" height="1500" xlink:href="88FA96A6.jpg" transform="matrix(.24 0 0 .24 -77 -98)"/><defs><path id="a" d="M38.736 111.092c-2.227 2.455-7.262 6.163-16.219 6.163-1.743 0-3.728-.156-5.568-.313-1.84-.156-3.535-.313-4.745-.313-.532 0-1.598 0-2.76.053-1.113 0-2.373.104-3.34.104-.629 0-.968-.157-.968-.521 0-.262.193-.419.774-.419.726 0 1.307-.104 1.743-.208.968-.21 1.21-1.359 1.404-2.874.243-2.195.243-6.321.243-11.127v-9.193c0-7.94 0-9.402-.097-11.074-.098-1.776-.484-2.612-2.083-2.978-.388-.105-1.21-.157-1.888-.157-.533 0-.824-.104-.824-.47s.339-.47 1.066-.47c2.565 0 5.616.156 6.972.156 1.501 0 4.55-.156 7.456-.156 6.052 0 14.137 0 19.415 5.955 2.42 2.716 4.696 7.052 4.696 13.268 0 6.582-2.566 11.596-5.277 14.574zm-5.858-26.118c-4.455-4.597-9.974-5.224-13.75-5.224-.969 0-2.76.157-3.147.366-.436.208-.581.47-.581 1.045-.049 1.776-.049 6.32-.049 10.447v6.582c0 5.537.049 9.559.097 10.552.049 1.306.146 3.395.533 3.97.63.992 2.518 2.09 6.342 2.09 4.939 0 8.23-1.045 11.136-3.762 3.098-2.873 4.067-7.626 4.067-13.006 0-6.636-2.567-10.919-4.648-13.06zm79.248-6.739c-.484 0-1.162.052-1.695.261-1.161.47-1.694 2.56-2.711 5.537-2.227 6.582-7.31 23.193-9.683 31.028-.532 1.828-.774 2.455-1.404 2.455-.484 0-.775-.627-1.501-2.56l-10.07-26.17h-.097c-.92 2.664-7.359 21.155-9.44 25.961-.92 2.142-1.162 2.769-1.743 2.769-.484 0-.678-.575-1.114-1.933l-10.264-33.17c-.581-1.933-1.114-3.187-1.792-3.708-.533-.366-1.501-.471-1.937-.471-.484 0-.775-.052-.775-.47 0-.366.387-.47 1.065-.47 2.518 0 5.18.156 5.617.156.436 0 2.566-.156 5.374-.156.678 0 1.017.156 1.017.47 0 .418-.388.47-.872.47-.387 0-.872 0-1.21.209-.436.209-.533.575-.533 1.149 0 .679.484 2.456 1.065 4.806.823 3.447 5.325 19.274 6.197 22.2h.145l9.393-27.215c.484-1.463.823-1.881 1.21-1.881.533 0 .775.783 1.404 2.455l10.071 26.274h.146c.871-3.5 4.744-17.29 6.438-23.401.339-1.202.484-2.298.484-3.03 0-.836-.436-1.567-2.324-1.567-.484 0-.823-.156-.823-.47 0-.366.388-.47 1.113-.47 2.566 0 4.6.156 5.036.156.339 0 2.42-.156 4.018-.156.533 0 .872.104.872.417.001.369-.241.525-.677.525zm33.447 39.282c-13.896 0-19.512-11.23-19.512-20.477 0-8.933 5.471-20.477 19.996-20.477 12.055 0 19.561 7.575 19.561 19.536-.001 11.963-7.747 21.418-20.045 21.418zm-.92-38.446c-5.568 0-11.911 3.343-11.911 16.35 0 10.865 5.568 19.483 14.864 19.483 3.389 0 11.232-1.775 11.232-16.871 0-11.701-6.245-18.962-14.185-18.962zm76.052 37.714h-4.599c-2.712 0-3.922-.261-5.181-.992-2.082-1.202-3.922-3.657-6.633-7.679-1.937-2.873-4.163-6.425-4.793-7.209-.242-.313-.533-.365-.872-.365l-4.212-.104c-.242 0-.387.104-.387.418v.731c0 4.858 0 8.984.242 11.178.145 1.515.436 2.664 1.888 2.874.726.104 1.791.208 2.372.208.388 0 .581.157.581.419 0 .364-.339.521-.969.521-2.808 0-6.39-.157-7.116-.157-.92 0-3.97.157-5.906.157-.63 0-.969-.157-.969-.521 0-.262.193-.419.774-.419.727 0 1.308-.104 1.743-.208.968-.21 1.21-1.359 1.404-2.874.241-2.193.241-6.319.241-11.126v-9.193c0-7.94 0-9.402-.097-11.074-.097-1.776-.483-2.612-2.081-2.978-.388-.105-1.211-.157-1.889-.157-.532 0-.823-.104-.823-.47s.339-.47 1.065-.47c2.566 0 5.616.156 6.633.156 1.646 0 5.325-.156 6.826-.156 3.051 0 6.294.313 8.909 2.246 1.355.993 3.292 3.657 3.292 7.156 0 3.865-1.501 7.418-6.391 11.701 4.309 5.851 7.649 10.499 10.506 13.737 2.711 3.03 4.696 3.396 5.422 3.553.533.104.969.156 1.355.156.388 0 .581.157.581.419.004.418-.335.522-.916.522zm-16.267-27.476c0-7.417-4.551-9.559-7.408-9.559-1.21 0-2.081.052-2.565.209-.339.104-.436.313-.436.731v15.88c0 .574.097.783.436.94 1.017.365 2.469.522 3.679.522 1.938 0 2.567-.209 3.438-.889 1.452-1.147 2.856-3.55 2.856-7.834zm51.459 26.275c-.339 1.357-.774 1.357-2.614 1.357-3.632 0-6.294-.104-8.376-.156-2.082-.104-3.583-.157-5.035-.157-.533 0-1.598 0-2.76.053-1.114 0-2.373.104-3.341.104-.63 0-.969-.157-.969-.521 0-.262.194-.419.775-.419a7.37 7.37 0 0 0 1.742-.208c.969-.21 1.211-1.359 1.404-2.874.242-2.193.242-6.319.242-11.126v-9.193c0-7.94 0-9.402-.097-11.074-.097-1.776-.484-2.612-2.082-2.978-.388-.105-1.21-.157-1.888-.157-.533 0-.823-.104-.823-.47s.339-.47 1.064-.47c1.308 0 2.712.051 3.923.051 1.258.053 2.372.105 3.05.105 1.549 0 11.184 0 12.104-.052.92-.104 1.694-.209 2.082-.313.242-.053.532-.209.774-.209s.29.209.29.47c0 .366-.241.993-.387 3.396-.049.522-.146 2.82-.242 3.447-.049.262-.146.575-.484.575s-.436-.262-.436-.731c0-.365-.048-1.254-.29-1.881-.339-.94-.823-1.567-3.244-1.88-.823-.104-5.906-.209-6.875-.209-.242 0-.339.157-.339.522v13.216c0 .365.048.574.339.574 1.065 0 6.633 0 7.746-.104 1.162-.104 1.889-.262 2.324-.783.339-.418.532-.68.774-.68.194 0 .339.104.339.418s-.193 1.149-.387 3.813c-.049 1.045-.194 3.135-.194 3.5 0 .418 0 .992-.436.992-.339 0-.436-.209-.436-.47-.048-.522-.048-1.201-.193-1.881-.242-1.044-.92-1.828-2.712-2.037-.92-.104-5.713-.157-6.875-.157-.242 0-.29.21-.29.523v4.126c0 1.776-.049 6.582 0 8.097.097 3.604.871 4.388 5.81 4.388 1.259 0 3.293 0 4.552-.627 1.258-.627 1.839-1.724 2.178-3.865.097-.574.194-.783.533-.783.387 0 .387.418.387.939.002 1.202-.384 4.754-.627 5.799zm56.689 1.201h-4.212c-1.452 0-2.324 0-3.342-.104-2.613-.261-3.921-1.41-6.002-3.395-2.131-2.038-11.669-14.104-12.686-15.619l-.532-.783h-.242v4.753c0 4.807 0 8.933.146 11.179.097 1.462.532 2.611 1.742 2.821.678.104 1.743.208 2.372.208.388 0 .63.157.63.419 0 .364-.388.521-.92.521-2.711 0-5.761-.157-6.972-.157-1.114 0-4.164.157-6.1.157-.63 0-.969-.157-.969-.521 0-.262.193-.419.774-.419.727 0 1.308-.104 1.743-.208.968-.21 1.21-1.359 1.403-2.874.242-2.193.242-6.319.242-11.126v-9.193c0-7.94 0-9.402-.097-11.074-.097-1.776-.484-2.612-2.081-2.978-.388-.105-1.211-.157-1.889-.157-.532 0-.823-.104-.823-.47s.339-.47 1.065-.47c2.565 0 5.615.156 6.777.156 1.163 0 4.213-.156 5.858-.156.678 0 1.017.104 1.017.47s-.29.47-.678.47c-.484 0-.774.052-1.355.157-1.307.261-1.694 1.149-1.791 2.978-.097 1.671-.097 3.133-.097 11.074v2.299h.242c1.646-1.934 8.715-9.716 10.118-11.492 1.355-1.724 2.421-3.03 2.421-3.917 0-.575-.193-.94-.678-1.045-.436-.104-.63-.208-.63-.522 0-.366.242-.47.775-.47 1.017 0 3.68.156 4.986.156 1.501 0 4.164-.156 5.665-.156.484 0 .823.104.823.47s-.242.47-.727.47c-.678 0-1.888.209-2.808.575-1.502.627-3.147 1.724-5.229 3.918-1.5 1.567-8.812 9.402-10.458 11.282 1.744 2.456 11.233 13.478 13.121 15.41 2.13 2.194 4.31 4.545 6.923 5.642 1.453.627 2.421.783 3.002.783.339 0 .63.105.63.419.005.362-.237.519-1.157.519z"/></defs><clipPath id="b"><use xlink:href="#a" overflow="visible"/></clipPath><g clip-path="url(#b)"><image overflow="visible" width="2000" height="1500" xlink:href="88FA96AA.jpg" transform="matrix(.24 0 0 .24 -77 -98)"/></g><g><defs><path id="c" d="M116.81 14.768c-.39.542-.883.979-1.483 1.311a9.351 9.351 0 0 1-2.089.821c-.794.216-1.562.366-2.305.45a19.75 19.75 0 0 1-2.22.127c-.226 0-.389-.005-.492-.016l.553-.916.43.015c4.2 0 6.299-1.327 6.299-3.979 0-.768-.184-1.153-.553-1.153-.215 0-.492.039-.83.118-.338.08-.792.25-1.36.514a11.6 11.6 0 0 0-1.736 1.01c-.589.411-1.242.995-1.959 1.753a18.555 18.555 0 0 0-2.028 2.59c-1.875 2.526-3.373 4.625-4.495 6.293-1.122 1.669-1.869 2.858-2.243 3.569-.374.711-.886 1.64-1.537 2.787a73.194 73.194 0 0 1-2.266 3.711c-1.229-.569-2.166-.964-2.812-1.185.471-.779 1.232-2.073 2.281-3.884 1.05-1.811 1.872-3.201 2.466-4.169s1.419-2.171 2.474-3.608a39.41 39.41 0 0 1 3.257-3.909c.399-.442.635-.694.707-.758.584-.6 1.239-1.193 1.966-1.777a30.465 30.465 0 0 1 2.52-1.801 14.146 14.146 0 0 1 3.088-1.492c1.106-.379 2.172-.568 3.196-.568 1.168 0 1.752.769 1.752 2.305a3.058 3.058 0 0 1-.581 1.841zm-13.382 1.681a3.401 3.401 0 0 0-.246.301l-.092.11a47.428 47.428 0 0 1-4.186-.876 54.445 54.445 0 0 1-3.71-1.074 93.15 93.15 0 0 1-2.882-1.011c-.865-.321-1.561-.581-2.089-.781-.527-.2-.847-.3-.96-.3-.123 0-.451.353-.983 1.058a75.41 75.41 0 0 0-1.69 2.337 27.378 27.378 0 0 1-1.813 2.337c-.615.706-1.056 1.058-1.322 1.058s-.527-.158-.783-.473c-.256-.316-.559-.811-.906-1.484 3.104-3.854 4.86-6.007 5.27-6.46.471-.526.824-.805 1.06-.836.062-.011.148-.016.262-.016.389 0 .812.105 1.267.316.456.211.914.481 1.375.813.461.332 1.078.713 1.852 1.146.773.431 1.613.855 2.52 1.271.906.416 2.094.829 3.564 1.239 1.47.411 3.081.742 4.832.995a3.167 3.167 0 0 0-.34.33zm-15.71 15.714c1.706.315 3.5.773 5.385 1.374.748.211 1.68.595 2.796 1.153 1.414.864 2.607 1.69 3.581 2.48.973.789 1.648 1.413 2.027 1.871.379.458.779.974 1.199 1.548.42.574.768 1.003 1.045 1.287.348.348.745.608 1.19.782s1.027.261 1.744.261c.369 0 .696-.05.983-.151.287-.1.515-.21.684-.332.168-.121.448-.342.837-.663.389-.321.743-.592 1.061-.813.419 0 .98.058 1.682.173.702.116 1.125.174 1.268.174.369 0 .625-.1.769-.3l.062.063c-.308.663-.832 1.227-1.575 1.689-.743.464-1.872.995-3.388 1.596-.42.189-1.563.284-3.426.284-.871 0-1.596-.079-2.174-.236-.579-.158-1.042-.395-1.391-.711-.349-.316-.643-.671-.884-1.066s-.512-.863-.814-1.406a24.214 24.214 0 0 0-1.006-1.642c-.369-.553-.912-1.169-1.629-1.848a16.835 16.835 0 0 0-2.535-1.95 27.107 27.107 0 0 0-2.735-1.327c-1.188-.474-2.519-.871-3.994-1.193-1.476-.321-2.625-.529-3.449-.623-.825-.095-1.396-.143-1.714-.143-.687 0-1.367.029-2.043.087-.676.057-1.377.163-2.104.315-.728.153-1.408.345-2.044.576a9.651 9.651 0 0 0-1.82.892 6.679 6.679 0 0 0-1.483 1.248 5.49 5.49 0 0 0-.983 1.666 5.874 5.874 0 0 0-.369 2.116c0 .19.041.424.123.703.082.279.259.624.53 1.034.271.411.623.784 1.052 1.122.431.337 1.045.626 1.844.869.799.242 1.71.363 2.735.363.88 0 1.856-.205 2.926-.616a16.712 16.712 0 0 0 3.05-1.54 33.39 33.39 0 0 0 2.873-2.068 35.867 35.867 0 0 0 2.459-2.14 28.196 28.196 0 0 0 1.751-1.832 9.71 9.71 0 0 1 1.152.553c.441.242.804.453 1.091.631l.416.269c-1.25 1.495-2.835 2.859-4.756 4.09-1.921 1.232-3.841 2.175-5.761 2.827-1.921.653-3.628.979-5.125.979a14.27 14.27 0 0 1-4.586-.742c-1.47-.494-2.693-1.229-3.672-2.203-.978-.974-1.467-2.066-1.467-3.277 0-.421.043-.829.13-1.224.087-.395.25-.823.491-1.288.241-.462.556-.889.946-1.278.389-.39.916-.769 1.583-1.138a11.523 11.523 0 0 1 2.304-.939c.871-.257 1.934-.465 3.188-.624a33.428 33.428 0 0 1 4.156-.236c2.169 0 4.108.158 5.814.474zm54.362 9.736c-.262.395-.456.681-.584.86-.128.18-.333.414-.615.703-.282.29-.545.502-.791.639a4.526 4.526 0 0 1-.945.371 4.54 4.54 0 0 1-1.252.166 4.78 4.78 0 0 1-2.013-.458 2.628 2.628 0 0 1-1.397-1.453c.164-.148.327-.319.491-.514.164-.194.32-.4.469-.616a18.313 18.313 0 0 0 .791-1.255c.123-.21.22-.387.292-.529.071-.143.143-.281.214-.419.072-.137.113-.21.123-.221-.256.885-.384 1.595-.384 2.132 0 .874.133 1.514.399 1.919.267.405.697.608 1.291.608.502 0 .914-.026 1.237-.08.322-.052.622-.171.899-.354.276-.184.485-.353.629-.506.144-.152.384-.431.722-.837.338-.405.646-.755.922-1.05l.062.063c-.112.16-.299.436-.56.831zm-3.988-6.578c-.409.811-1.07 2.001-1.982 3.569-.912 1.569-1.485 2.469-1.721 2.701-.553.547-1.019.958-1.397 1.231-1.68 1.211-3.57 1.816-5.67 1.816a5.19 5.19 0 0 1-1.567-.252 5.888 5.888 0 0 1-1.559-.774 6.512 6.512 0 0 1-1.36-1.255c-.399-.489-.719-1.084-.96-1.785s-.361-1.455-.361-2.266c0-.884.097-1.75.292-2.598.194-.847.481-1.667.86-2.456a8.784 8.784 0 0 1 1.49-2.179 10.013 10.013 0 0 1 2.113-1.729c.793-.489 1.729-.873 2.803-1.152 1.076-.279 2.239-.418 3.488-.418.512.021.985.068 1.421.142.436.073.802.164 1.099.268.296.105.561.221.791.348.231.126.415.26.553.403.138.142.254.282.346.418.092.137.159.271.199.403.041.132.069.242.084.332.016.089.023.171.023.245v.126c-.092.263-.305.758-.638 1.484-.333.727-.643 1.39-.93 1.99l-.445.884c.337-1.105.507-2.063.507-2.874 0-2.242-.958-3.364-2.874-3.364-2.162 0-4.046.884-5.654 2.653a11.153 11.153 0 0 0-1.322 1.595 8.46 8.46 0 0 0-.899 1.697c-.22.575-.399 1.096-.537 1.564s-.233.977-.285 1.524c-.051.547-.082.958-.092 1.231-.01.274-.015.616-.015 1.027 0 .643.107 1.227.323 1.753.215.526.492.945.83 1.255.337.311.696.547 1.075.71.379.164.753.245 1.122.245.799 0 1.365-.044 1.698-.135.332-.088.889-.371 1.667-.844a10.319 10.319 0 0 0 1.521-1.153c.43-.4.793-.827 1.091-1.279.296-.453.527-.837.691-1.152.164-.316.358-.751.584-1.304.225-.553.399-.956.522-1.208 1.864-3.822 2.935-6.106 3.212-6.854.041-.074.102-.168.184-.285.083-.115.259-.268.53-.458a1.45 1.45 0 0 1 .837-.284c.164 0 .343.065.538.197a.653.653 0 0 1 .292.577c0 .358-.118.803-.354 1.334-.233.534-.955 1.978-2.164 4.336zm25.185-17.41c-.707.553-1.403.829-2.089.829-.297 0-.545-.055-.746-.166-.199-.11-.3-.266-.3-.466 0-.137.085-.26.254-.371.169-.111.354-.2.553-.269.2-.068.385-.182.554-.339a.755.755 0 0 0 .253-.569.406.406 0 0 0-.069-.229.805.805 0 0 0-.169-.181.474.474 0 0 1-.115-.111c1.003-.421 1.726-.632 2.166-.632.195 0 .372.05.53.15.158.1.238.24.238.419.001.737-.353 1.382-1.06 1.935zm-4.324 14.157a15.2 15.2 0 0 1-.422 1.05c-.123.268-.318.655-.584 1.161s-.466.89-.6 1.153a1.629 1.629 0 0 0-.207.355c-.056.132-.11.294-.162.489a4.652 4.652 0 0 1-.123.418c-1.751 5.159-3.295 9.507-4.632 13.044-1.336 3.537-3.06 7.88-5.17 13.029-1.783 4.359-4.738 6.538-8.866 6.538-.727 0-1.395-.047-2.005-.142a8.039 8.039 0 0 1-1.829-.521c-.608-.252-1.154-.513-1.635-.782s-1.059-.674-1.729-1.216a45.804 45.804 0 0 1-1.79-1.516 120.496 120.496 0 0 1-2.121-1.966c-.337-.358-.776-.818-1.313-1.382-.537-.563-1.426-1.429-2.665-2.598-1.24-1.168-2.223-2-2.95-2.495-1.168-.811-2.195-1.348-3.081-1.611-.886-.263-1.852-.395-2.896-.395-1.065 0-2.057.168-2.973.506-.917.336-1.683.784-2.297 1.342a6.218 6.218 0 0 0-1.444 1.927 5.198 5.198 0 0 0-.522 2.273c0 .305.031.593.093.861.061.269.123.479.184.631.062.153.093.245.093.276 0 .242-.179.364-.538.364-.399 0-.599-.685-.599-2.053 0-.895.202-1.779.606-2.653.405-.875.986-1.674 1.744-2.401.759-.726 1.759-1.315 3.004-1.769 1.244-.453 2.625-.679 4.141-.679 1.076 0 2.027.152 2.857.458.83.305 1.68.764 2.55 1.375.636.442 1.499 1.176 2.589 2.203a76.853 76.853 0 0 1 2.788 2.74l1.153 1.2c2.704 2.559 4.465 4.169 5.285 4.833 1.404 1.169 2.627 1.884 3.672 2.148.492.126 1.02.189 1.583.189.625 0 1.229-.118 1.813-.355a6.157 6.157 0 0 0 1.544-.892c.446-.358.886-.824 1.321-1.397.436-.574.801-1.119 1.098-1.635.297-.516.612-1.14.946-1.871.332-.732.591-1.34.775-1.824.185-.484.405-1.076.661-1.777.256-.7.441-1.187.553-1.46.902-2.285 2.261-6.072 4.079-11.363 1.818-5.29 2.835-8.315 3.05-9.073 1.229-4.379 2.115-6.911 2.658-7.596.358-.505.727-.89 1.106-1.153.379-.263.686-.394.921-.394.471 0 .707.516.707 1.547 0 .558-.031 1.065-.093 1.524a6.16 6.16 0 0 1-.328 1.335zm-6.676 4.627c-.164.074-.31.143-.438.205a2.545 2.545 0 0 0-.431.284l-.376.3a5.256 5.256 0 0 0-.446.435l-.477.505c-.112.121-.323.35-.63.687l-.737.806-.077-.047c.625-.947 1.175-1.703 1.652-2.266.476-.563.832-.932 1.068-1.105a8.27 8.27 0 0 1 .945-.584 8.94 8.94 0 0 0 .96-.592l-.461 1.153a7.484 7.484 0 0 0-.552.219zm34.457 5.204a30.77 30.77 0 0 1-.584.86c-.128.18-.333.414-.614.703s-.546.502-.791.639c-.246.137-.562.261-.945.371s-.802.166-1.252.166a4.78 4.78 0 0 1-2.013-.458c-.666-.306-1.132-.79-1.398-1.453.164-.148.328-.319.491-.514.164-.194.32-.4.47-.616.148-.215.286-.426.414-.631s.254-.413.377-.624c.123-.21.22-.387.292-.529.071-.143.143-.281.215-.419.071-.137.113-.21.123-.221-.256.885-.384 1.595-.384 2.132 0 .874.132 1.514.399 1.919.266.405.695.608 1.29.608.502 0 .914-.026 1.237-.08.322-.052.622-.171.898-.354.276-.184.486-.353.63-.506.144-.152.384-.431.722-.837.339-.405.646-.755.923-1.05l.061.063c-.112.16-.299.436-.561.831zm-3.986-6.578c-.41.811-1.071 2.001-1.982 3.569-.912 1.569-1.485 2.469-1.722 2.701-.553.547-1.019.958-1.397 1.231-1.68 1.211-3.569 1.816-5.669 1.816a5.184 5.184 0 0 1-1.567-.252c-.533-.168-1.053-.426-1.56-.774s-.96-.766-1.359-1.255c-.4-.489-.721-1.084-.961-1.785a6.914 6.914 0 0 1-.36-2.266 11.612 11.612 0 0 1 1.151-5.054 8.815 8.815 0 0 1 1.491-2.179 10.033 10.033 0 0 1 2.112-1.729c.794-.489 1.729-.873 2.804-1.152 1.076-.279 2.238-.418 3.487-.418.513.021.986.068 1.422.142.435.073.801.164 1.099.268.296.105.561.221.791.348s.415.26.554.403c.138.142.253.282.345.418.093.137.159.271.2.403s.069.242.085.332c.015.089.022.171.022.245v.126c-.092.263-.305.758-.638 1.484s-.643 1.39-.929 1.99l-.446.884c.338-1.105.507-2.063.507-2.874 0-2.242-.958-3.364-2.873-3.364-2.161 0-4.046.884-5.654 2.653a11.145 11.145 0 0 0-1.321 1.595 8.353 8.353 0 0 0-.898 1.697c-.22.575-.399 1.096-.538 1.564a8.102 8.102 0 0 0-.284 1.524c-.051.547-.082.958-.092 1.231-.011.274-.016.616-.016 1.027 0 .643.107 1.227.322 1.753.216.526.492.945.83 1.255s.696.547 1.076.71c.379.164.752.245 1.121.245.799 0 1.364-.044 1.697-.135.333-.088.889-.371 1.667-.844a10.319 10.319 0 0 0 1.521-1.153c.43-.4.794-.827 1.091-1.279.297-.453.527-.837.691-1.152.164-.316.358-.751.584-1.304.225-.553.399-.956.522-1.208 1.864-3.822 2.935-6.106 3.211-6.854.041-.074.103-.168.184-.285.083-.115.26-.268.53-.458a1.45 1.45 0 0 1 .838-.284c.164 0 .343.065.538.197.194.131.291.324.291.577 0 .358-.117.803-.353 1.334-.235.534-.957 1.978-2.165 4.336zm31.169-5.922a5.46 5.46 0 0 1-.791.845c-.308.269-.617.521-.93.758-.313.237-.576.424-.791.561l-.339.221c.379-.674.569-1.105.569-1.295 0-.052-.021-.079-.062-.079a.314.314 0 0 0-.139.055 1.472 1.472 0 0 0-.23.189l-.261.253a21.353 21.353 0 0 0-.645.68l-.354.387c-.153.168-.261.284-.323.347a36.684 36.684 0 0 1-1.974 2.274 95.435 95.435 0 0 1-2.612 2.614 133.865 133.865 0 0 0-3.111 3.119c-.061-.031-.184-.1-.368-.205a6.222 6.222 0 0 0-.415-.221c-.092-.042-.223-.097-.392-.166s-.338-.119-.507-.15a2.848 2.848 0 0 0-.53-.047c.03-.032.988-.972 2.873-2.819a142.448 142.448 0 0 0 5.009-5.14c1.239-1.338 2.063-2.18 2.474-2.527.891-.779 1.787-1.184 2.688-1.216h.153c.41 0 .735.077.977.229.24.153.36.346.36.577.001.21-.108.461-.329.756zm-11.416 1.445c-1.101-.532-1.759-.939-1.974-1.224-.145-.158-.261-.255-.354-.292-.093-.037-.303-.056-.63-.056-.522 0-1.175.484-1.959 1.453-.783.969-1.247 1.79-1.391 2.464l-.246-.111a8.03 8.03 0 0 1 .33-.924c.159-.384.387-.837.685-1.358.297-.521.622-1 .976-1.437s.781-.811 1.282-1.122c.502-.311 1.009-.465 1.521-.465.369.042.687.205.952.49a4.1 4.1 0 0 1 .677.979c.184.369.316.59.399.664.614.621 1.874 1.131 3.779 1.532l-.568.648a17.456 17.456 0 0 1-3.479-1.241zm-3.434 9.421c.297.01.584.055.86.134.276.079.494.158.653.237.158.079.396.203.714.371.063.032.325.19.792.474.466.284.894.532 1.282.742.39.211.848.448 1.376.71.527.263 1.026.469 1.498.616.471.148.875.221 1.214.221.316 0 .63-.094.937-.284.308-.189.559-.4.753-.631.194-.232.394-.442.599-.632s.374-.285.507-.285h.77c.256 0 .458-.044.606-.134s.438-.355.868-.798l.076.063c-.225.327-.488.721-.791 1.185-.302.463-.518.784-.646.963-.128.179-.3.39-.514.632-.216.242-.421.402-.615.481a4.594 4.594 0 0 1-.729.213 5.069 5.069 0 0 1-1.053.095c-.819 0-1.811-.213-2.973-.64-1.163-.426-2.692-1.192-4.587-2.297-.297-.19-.521-.284-.676-.284-.144 0-.215.084-.215.252 0 .147.076.406.229.773-.481.537-.875.943-1.182 1.216a4.485 4.485 0 0 1-1.061.695 2.98 2.98 0 0 1-1.291.284c-.133 0-.292-.016-.476-.047a5.036 5.036 0 0 1-.615-.15 1.3 1.3 0 0 1-.568-.34.77.77 0 0 1-.23-.553c0-.115.038-.289.115-.521.077-.232.223-.511.438-.837.214-.327.48-.629.798-.909.317-.278.751-.519 1.299-.718a5.397 5.397 0 0 1 1.838-.297zm51.758-2.843c-.384.642-.903 1.29-1.56 1.942-.655.653-1.449 1.297-2.381 1.935a22.656 22.656 0 0 1-2.935 1.697 17.275 17.275 0 0 1-3.334 1.193c-1.199.3-2.361.45-3.488.45-2.223 0-3.591-.637-4.103-1.911.164-.148.328-.319.492-.514.163-.194.319-.4.469-.616.148-.215.286-.426.414-.631s.254-.413.377-.624c.123-.21.22-.387.292-.529.071-.143.143-.281.215-.419.071-.137.113-.21.123-.221-.256.885-.384 1.595-.384 2.132 0 .842.212 1.475.637 1.895.426.422 1.032.632 1.821.632 1.219 0 2.486-.21 3.803-.632a16.529 16.529 0 0 0 3.58-1.61 23.77 23.77 0 0 0 2.927-2.093c.881-.742 1.564-1.45 2.051-2.124s.729-1.226.729-1.658c0-.231-.035-.544-.107-.939-.071-.395-.107-.64-.107-.735 0-.104.047-.158.139-.158.194 0 .395.184.599.553.205.369.308.795.308 1.279-.001.495-.193 1.064-.577 1.706zm-10.117-9.72a349.78 349.78 0 0 1-2.489 4.588c-.86 1.558-1.389 2.569-1.582 3.032-.267.643-.884 1.785-1.852 3.427-.969 1.642-1.585 2.589-1.852 2.843-.554.547-1.02.958-1.398 1.231-1.68 1.211-3.569 1.816-5.669 1.816a5.184 5.184 0 0 1-1.567-.252c-.533-.168-1.053-.426-1.56-.774s-.96-.766-1.359-1.255c-.399-.489-.721-1.084-.961-1.785a6.914 6.914 0 0 1-.36-2.266 11.612 11.612 0 0 1 1.152-5.054 8.784 8.784 0 0 1 1.49-2.179 10.033 10.033 0 0 1 2.112-1.729c.794-.489 1.729-.873 2.804-1.152 1.076-.279 2.238-.418 3.488-.418.512.021.985.068 1.421.142.435.073.802.164 1.099.268.297.105.561.221.791.348s.415.26.554.403c.138.142.253.282.345.418.093.137.159.271.2.403s.069.242.085.332c.015.089.022.171.022.245v.126c-.092.263-.305.758-.638 1.484s-.643 1.39-.929 1.99l-.446.884c.338-1.105.507-2.063.507-2.874 0-2.242-.958-3.364-2.873-3.364-1.966 0-3.831.958-5.592 2.874-.595.6-1.106 1.25-1.537 1.951-.43.7-.751 1.329-.96 1.887a9.838 9.838 0 0 0-.484 1.832 14.842 14.842 0 0 0-.199 1.516c-.021.348-.03.758-.03 1.232 0 .643.106 1.227.321 1.753.216.526.492.945.83 1.255s.697.547 1.076.71c.379.164.752.245 1.121.245.799 0 1.365-.044 1.697-.135.333-.088.889-.371 1.668-.844a10.372 10.372 0 0 0 1.521-1.153c.431-.4.794-.827 1.091-1.279.297-.453.527-.837.691-1.152.164-.316.359-.751.584-1.304.226-.553.399-.956.522-1.208 1.557-3.074 2.417-4.801 2.581-5.18.164-.264.512-.879 1.045-1.848a172.96 172.96 0 0 0 1.844-3.466 50.346 50.346 0 0 0 1.836-3.924c.527-1.274.791-2.169.791-2.685 0-.252-.061-.405-.184-.458-.175.105-.364.276-.569.513a6.977 6.977 0 0 0-.638.893c-.22.358-.43.721-.63 1.089-.199.369-.417.806-.652 1.311a56.234 56.234 0 0 0-1.214 2.747c-.226.548-.397.972-.515 1.271l-.461 1.169-.347.876c-.081-.284-.281-.547-.598-.79.624-2.031 1.23-3.777 1.82-5.235.589-1.458 1.105-2.585 1.552-3.38.445-.795.901-1.416 1.367-1.863s.86-.729 1.184-.845a3.227 3.227 0 0 1 1.098-.174c.297 0 .546.171.745.513.199.343.3.729.3 1.161 0 1.105-.336 2.548-1.006 4.328a42.03 42.03 0 0 1-2.204 4.919z"/></defs><clipPath id="d"><use xlink:href="#c" overflow="visible"/></clipPath><g clip-path="url(#d)"><image overflow="visible" width="2000" height="1500" xlink:href="88FA96AD.jpg" transform="matrix(.24 0 0 .24 -77 -98)"/></g></g></svg>