<?xml version="1.0" encoding="utf-8"?>
<!-- Generator: Adobe Illustrator 16.0.0, SVG Export Plug-In . SVG Version: 6.00 Build 0)  -->
<!DOCTYPE svg PUBLIC "-//W3C//DTD SVG 1.1//EN" "http://www.w3.org/Graphics/SVG/1.1/DTD/svg11.dtd">
<svg version="1.1" id="Layer_1" xmlns="http://www.w3.org/2000/svg" xmlns:xlink="http://www.w3.org/1999/xlink" x="0px" y="0px"
	 width="19.5px" height="20px" viewBox="245.875 246 19.5 20" enable-background="new 245.875 246 19.5 20" xml:space="preserve">
<path fill="#FFFFFF" d="M258.698,256.3c-0.172-0.171-0.172-0.428,0-0.6l6.421-6.421c0.171-0.171,0.257-0.428,0.257-0.6
	c0-0.171-0.086-0.428-0.257-0.599l-1.198-1.199c-0.172-0.171-0.429-0.257-0.6-0.257c-0.257,0-0.428,0.085-0.6,0.257l-6.421,6.421
	c-0.171,0.171-0.428,0.171-0.6,0l-6.421-6.421c-0.171-0.171-0.428-0.257-0.599-0.257c-0.171,0-0.428,0.085-0.599,0.257l-1.199,1.199
	c-0.171,0.171-0.257,0.428-0.257,0.599c0,0.171,0.085,0.428,0.257,0.6l6.421,6.421c0.171,0.171,0.171,0.428,0,0.6l-6.421,6.421
	c-0.171,0.172-0.257,0.429-0.257,0.6s0.085,0.428,0.257,0.6l1.199,1.198c0.171,0.171,0.428,0.257,0.599,0.257
	c0.171,0,0.428-0.086,0.599-0.257l6.421-6.421c0.171-0.172,0.428-0.172,0.6,0l6.421,6.421c0.172,0.171,0.429,0.257,0.6,0.257
	s0.428-0.086,0.6-0.257l1.198-1.198c0.171-0.172,0.257-0.429,0.257-0.6s-0.086-0.428-0.257-0.6L258.698,256.3z"/>
</svg>
