<?xml version="1.0" encoding="utf-8"?>
<!-- Generator: Adobe Illustrator 16.0.0, SVG Export Plug-In . SVG Version: 6.00 Build 0)  -->
<!DOCTYPE svg PUBLIC "-//W3C//DTD SVG 1.1//EN" "http://www.w3.org/Graphics/SVG/1.1/DTD/svg11.dtd">
<svg version="1.1" id="Layer_1" xmlns="http://www.w3.org/2000/svg" xmlns:xlink="http://www.w3.org/1999/xlink" x="0px" y="0px"
	 width="18.648px" height="22.13px" viewBox="243.852 244.935 18.648 22.13" enable-background="new 243.852 244.935 18.648 22.13"
	 xml:space="preserve">
<g>
	<g>
		<path fill="#FFFFFF" d="M243.499,255.996c-0.001,0.324,0.125,0.63,0.353,0.858l9.857,9.857c0.228,0.228,0.531,0.354,0.856,0.354
			c0.324,0,0.628-0.126,0.855-0.354l0.726-0.726c0.228-0.228,0.354-0.531,0.354-0.856c0-0.324-0.126-0.628-0.354-0.855l-8.279-8.279
			l8.27-8.27c0.473-0.472,0.473-1.24,0-1.712l-0.725-0.725c-0.229-0.228-0.532-0.354-0.856-0.354s-0.628,0.125-0.855,0.354
			l-9.849,9.848C243.624,255.365,243.498,255.67,243.499,255.996z"/>
	</g>
</g>
</svg>
