<?xml version="1.0" encoding="utf-8"?>
<!-- Generator: Adobe Illustrator 16.0.0, SVG Export Plug-In . SVG Version: 6.00 Build 0)  -->
<!DOCTYPE svg PUBLIC "-//W3C//DTD SVG 1.1//EN" "http://www.w3.org/Graphics/SVG/1.1/DTD/svg11.dtd">
<svg version="1.1" id="Layer_1" xmlns="http://www.w3.org/2000/svg" xmlns:xlink="http://www.w3.org/1999/xlink" x="0px" y="0px"
	 width="19.898px" height="22.962px" viewBox="249.499 243.75 19.898 22.962" enable-background="new 249.499 243.75 19.898 22.962"
	 xml:space="preserve">
<g>
	<g>
		<path fill="#FFFFFF" d="M262.148,255.136l-9.849-9.848c-0.228-0.228-0.532-0.354-0.856-0.354s-0.628,0.125-0.856,0.354
			l-0.725,0.725c-0.472,0.473-0.472,1.241,0,1.712l8.27,8.27l-8.279,8.279c-0.228,0.228-0.354,0.531-0.354,0.855
			c0,0.325,0.126,0.629,0.354,0.856l0.726,0.726c0.228,0.228,0.531,0.354,0.855,0.354c0.325,0,0.628-0.126,0.856-0.354l9.857-9.857
			c0.228-0.229,0.354-0.534,0.353-0.858C262.501,255.67,262.375,255.365,262.148,255.136z"/>
	</g>
</g>
</svg>
