<?xml version="1.0" encoding="utf-8"?>
<!-- Generator: Adobe Illustrator 16.0.0, SVG Export Plug-In . SVG Version: 6.00 Build 0)  -->
<!DOCTYPE svg PUBLIC "-//W3C//DTD SVG 1.1//EN" "http://www.w3.org/Graphics/SVG/1.1/DTD/svg11.dtd">
<svg version="1.1" id="Layer_1" xmlns="http://www.w3.org/2000/svg" xmlns:xlink="http://www.w3.org/1999/xlink" x="0px" y="0px"
	 width="320px" height="127px" viewBox="0 0 320 127" enable-background="new 0 0 320 127" xml:space="preserve">
<image overflow="visible" width="2000" height="1500" xlink:href="88FA96A6.jpg"  transform="matrix(0.24 0 0 0.24 -77 -98)">
</image>
<g>
	<defs>
		<path id="SVGID_1_" d="M38.736,111.092c-2.227,2.455-7.262,6.163-16.219,6.163c-1.743,0-3.728-0.156-5.568-0.313
			c-1.84-0.156-3.535-0.313-4.745-0.313c-0.532,0-1.598,0-2.76,0.053c-1.113,0-2.373,0.104-3.34,0.104
			c-0.629,0-0.968-0.157-0.968-0.521c0-0.262,0.193-0.419,0.774-0.419c0.726,0,1.307-0.104,1.743-0.208
			c0.968-0.21,1.21-1.359,1.404-2.874C9.3,110.569,9.3,106.443,9.3,101.637v-9.193c0-7.94,0-9.402-0.097-11.074
			c-0.098-1.776-0.484-2.612-2.083-2.978c-0.388-0.105-1.21-0.157-1.888-0.157c-0.533,0-0.824-0.104-0.824-0.47
			s0.339-0.47,1.066-0.47c2.565,0,5.616,0.156,6.972,0.156c1.501,0,4.55-0.156,7.456-0.156c6.052,0,14.137,0,19.415,5.955
			c2.42,2.716,4.696,7.052,4.696,13.268C44.013,103.1,41.447,108.114,38.736,111.092L38.736,111.092z M32.878,84.974
			c-4.455-4.597-9.974-5.224-13.75-5.224c-0.969,0-2.76,0.157-3.147,0.366c-0.436,0.208-0.581,0.47-0.581,1.045
			c-0.049,1.776-0.049,6.32-0.049,10.447v6.582c0,5.537,0.049,9.559,0.097,10.552c0.049,1.306,0.146,3.395,0.533,3.97
			c0.63,0.992,2.518,2.09,6.342,2.09c4.939,0,8.23-1.045,11.136-3.762c3.098-2.873,4.067-7.626,4.067-13.006
			C37.526,91.398,34.959,87.115,32.878,84.974L32.878,84.974z M112.126,78.235c-0.484,0-1.162,0.052-1.695,0.261
			c-1.161,0.47-1.694,2.56-2.711,5.537c-2.227,6.582-7.31,23.193-9.683,31.028c-0.532,1.828-0.774,2.455-1.404,2.455
			c-0.484,0-0.775-0.627-1.501-2.56l-10.07-26.17h-0.097c-0.92,2.664-7.359,21.155-9.44,25.961c-0.92,2.142-1.162,2.769-1.743,2.769
			c-0.484,0-0.678-0.575-1.114-1.933l-10.264-33.17c-0.581-1.933-1.114-3.187-1.792-3.708c-0.533-0.366-1.501-0.471-1.937-0.471
			c-0.484,0-0.775-0.052-0.775-0.47c0-0.366,0.387-0.47,1.065-0.47c2.518,0,5.18,0.156,5.617,0.156c0.436,0,2.566-0.156,5.374-0.156
			c0.678,0,1.017,0.156,1.017,0.47c0,0.418-0.388,0.47-0.872,0.47c-0.387,0-0.872,0-1.21,0.209
			c-0.436,0.209-0.533,0.575-0.533,1.149c0,0.679,0.484,2.456,1.065,4.806c0.823,3.447,5.325,19.274,6.197,22.2h0.145l9.393-27.215
			c0.484-1.463,0.823-1.881,1.21-1.881c0.533,0,0.775,0.783,1.404,2.455l10.071,26.274h0.146c0.871-3.5,4.744-17.29,6.438-23.401
			c0.339-1.202,0.484-2.298,0.484-3.03c0-0.836-0.436-1.567-2.324-1.567c-0.484,0-0.823-0.156-0.823-0.47
			c0-0.366,0.388-0.47,1.113-0.47c2.566,0,4.6,0.156,5.036,0.156c0.339,0,2.42-0.156,4.018-0.156c0.533,0,0.872,0.104,0.872,0.417
			C112.804,78.079,112.562,78.235,112.126,78.235L112.126,78.235z M145.573,117.517c-13.896,0-19.512-11.23-19.512-20.477
			c0-8.933,5.471-20.477,19.996-20.477c12.055,0,19.561,7.575,19.561,19.536C165.617,108.062,157.871,117.517,145.573,117.517
			L145.573,117.517z M144.653,79.071c-5.568,0-11.911,3.343-11.911,16.35c0,10.865,5.568,19.483,14.864,19.483
			c3.389,0,11.232-1.775,11.232-16.871C158.838,86.332,152.593,79.071,144.653,79.071L144.653,79.071z M220.705,116.785h-4.599
			c-2.712,0-3.922-0.261-5.181-0.992c-2.082-1.202-3.922-3.657-6.633-7.679c-1.937-2.873-4.163-6.425-4.793-7.209
			c-0.242-0.313-0.533-0.365-0.872-0.365l-4.212-0.104c-0.242,0-0.387,0.104-0.387,0.418v0.731c0,4.858,0,8.984,0.242,11.178
			c0.145,1.515,0.436,2.664,1.888,2.874c0.726,0.104,1.791,0.208,2.372,0.208c0.388,0,0.581,0.157,0.581,0.419
			c0,0.364-0.339,0.521-0.969,0.521c-2.808,0-6.39-0.157-7.116-0.157c-0.92,0-3.97,0.157-5.906,0.157
			c-0.63,0-0.969-0.157-0.969-0.521c0-0.262,0.193-0.419,0.774-0.419c0.727,0,1.308-0.104,1.743-0.208
			c0.968-0.21,1.21-1.359,1.404-2.874c0.241-2.193,0.241-6.319,0.241-11.126v-9.193c0-7.94,0-9.402-0.097-11.074
			c-0.097-1.776-0.483-2.612-2.081-2.978c-0.388-0.105-1.211-0.157-1.889-0.157c-0.532,0-0.823-0.104-0.823-0.47
			s0.339-0.47,1.065-0.47c2.566,0,5.616,0.156,6.633,0.156c1.646,0,5.325-0.156,6.826-0.156c3.051,0,6.294,0.313,8.909,2.246
			c1.355,0.993,3.292,3.657,3.292,7.156c0,3.865-1.501,7.418-6.391,11.701c4.309,5.851,7.649,10.499,10.506,13.737
			c2.711,3.03,4.696,3.396,5.422,3.553c0.533,0.104,0.969,0.156,1.355,0.156c0.388,0,0.581,0.157,0.581,0.419
			C221.625,116.681,221.286,116.785,220.705,116.785L220.705,116.785z M204.438,89.309c0-7.417-4.551-9.559-7.408-9.559
			c-1.21,0-2.081,0.052-2.565,0.209c-0.339,0.104-0.436,0.313-0.436,0.731v15.88c0,0.574,0.097,0.783,0.436,0.94
			c1.017,0.365,2.469,0.522,3.679,0.522c1.938,0,2.567-0.209,3.438-0.889C203.034,95.996,204.438,93.593,204.438,89.309
			L204.438,89.309z M255.897,115.584c-0.339,1.357-0.774,1.357-2.614,1.357c-3.632,0-6.294-0.104-8.376-0.156
			c-2.082-0.104-3.583-0.157-5.035-0.157c-0.533,0-1.598,0-2.76,0.053c-1.114,0-2.373,0.104-3.341,0.104
			c-0.63,0-0.969-0.157-0.969-0.521c0-0.262,0.194-0.419,0.775-0.419c0.726,0,1.307-0.104,1.742-0.208
			c0.969-0.21,1.211-1.359,1.404-2.874c0.242-2.193,0.242-6.319,0.242-11.126v-9.193c0-7.94,0-9.402-0.097-11.074
			c-0.097-1.776-0.484-2.612-2.082-2.978c-0.388-0.105-1.21-0.157-1.888-0.157c-0.533,0-0.823-0.104-0.823-0.47
			s0.339-0.47,1.064-0.47c1.308,0,2.712,0.051,3.923,0.051c1.258,0.053,2.372,0.105,3.05,0.105c1.549,0,11.184,0,12.104-0.052
			c0.92-0.104,1.694-0.209,2.082-0.313c0.242-0.053,0.532-0.209,0.774-0.209s0.29,0.209,0.29,0.47c0,0.366-0.241,0.993-0.387,3.396
			c-0.049,0.522-0.146,2.82-0.242,3.447c-0.049,0.262-0.146,0.575-0.484,0.575s-0.436-0.262-0.436-0.731
			c0-0.365-0.048-1.254-0.29-1.881c-0.339-0.94-0.823-1.567-3.244-1.88c-0.823-0.104-5.906-0.209-6.875-0.209
			c-0.242,0-0.339,0.157-0.339,0.522v13.216c0,0.365,0.048,0.574,0.339,0.574c1.065,0,6.633,0,7.746-0.104
			c1.162-0.104,1.889-0.262,2.324-0.783c0.339-0.418,0.532-0.68,0.774-0.68c0.194,0,0.339,0.104,0.339,0.418
			s-0.193,1.149-0.387,3.813c-0.049,1.045-0.194,3.135-0.194,3.5c0,0.418,0,0.992-0.436,0.992c-0.339,0-0.436-0.209-0.436-0.47
			c-0.048-0.522-0.048-1.201-0.193-1.881c-0.242-1.044-0.92-1.828-2.712-2.037c-0.92-0.104-5.713-0.157-6.875-0.157
			c-0.242,0-0.29,0.21-0.29,0.523v4.126c0,1.776-0.049,6.582,0,8.097c0.097,3.604,0.871,4.388,5.81,4.388
			c1.259,0,3.293,0,4.552-0.627c1.258-0.627,1.839-1.724,2.178-3.865c0.097-0.574,0.194-0.783,0.533-0.783
			c0.387,0,0.387,0.418,0.387,0.939C256.526,110.987,256.14,114.539,255.897,115.584L255.897,115.584z M312.586,116.785h-4.212
			c-1.452,0-2.324,0-3.342-0.104c-2.613-0.261-3.921-1.41-6.002-3.395c-2.131-2.038-11.669-14.104-12.686-15.619l-0.532-0.783
			h-0.242v4.753c0,4.807,0,8.933,0.146,11.179c0.097,1.462,0.532,2.611,1.742,2.821c0.678,0.104,1.743,0.208,2.372,0.208
			c0.388,0,0.63,0.157,0.63,0.419c0,0.364-0.388,0.521-0.92,0.521c-2.711,0-5.761-0.157-6.972-0.157c-1.114,0-4.164,0.157-6.1,0.157
			c-0.63,0-0.969-0.157-0.969-0.521c0-0.262,0.193-0.419,0.774-0.419c0.727,0,1.308-0.104,1.743-0.208
			c0.968-0.21,1.21-1.359,1.403-2.874c0.242-2.193,0.242-6.319,0.242-11.126v-9.193c0-7.94,0-9.402-0.097-11.074
			c-0.097-1.776-0.484-2.612-2.081-2.978c-0.388-0.105-1.211-0.157-1.889-0.157c-0.532,0-0.823-0.104-0.823-0.47
			s0.339-0.47,1.065-0.47c2.565,0,5.615,0.156,6.777,0.156c1.163,0,4.213-0.156,5.858-0.156c0.678,0,1.017,0.104,1.017,0.47
			s-0.29,0.47-0.678,0.47c-0.484,0-0.774,0.052-1.355,0.157c-1.307,0.261-1.694,1.149-1.791,2.978
			c-0.097,1.671-0.097,3.133-0.097,11.074v2.299h0.242c1.646-1.934,8.715-9.716,10.118-11.492c1.355-1.724,2.421-3.03,2.421-3.917
			c0-0.575-0.193-0.94-0.678-1.045c-0.436-0.104-0.63-0.208-0.63-0.522c0-0.366,0.242-0.47,0.775-0.47
			c1.017,0,3.68,0.156,4.986,0.156c1.501,0,4.164-0.156,5.665-0.156c0.484,0,0.823,0.104,0.823,0.47s-0.242,0.47-0.727,0.47
			c-0.678,0-1.888,0.209-2.808,0.575c-1.502,0.627-3.147,1.724-5.229,3.918c-1.5,1.567-8.812,9.402-10.458,11.282
			c1.744,2.456,11.233,13.478,13.121,15.41c2.13,2.194,4.31,4.545,6.923,5.642c1.453,0.627,2.421,0.783,3.002,0.783
			c0.339,0,0.63,0.105,0.63,0.419C313.748,116.628,313.506,116.785,312.586,116.785L312.586,116.785z"/>
	</defs>
	<clipPath id="SVGID_2_">
		<use xlink:href="#SVGID_1_"  overflow="visible"/>
	</clipPath>
	<g transform="matrix(1 0 0 1 2.957681e-006 7.575154e-006)" clip-path="url(#SVGID_2_)">
		<image overflow="visible" width="2000" height="1500" xlink:href="88FA96AA.jpg"  transform="matrix(0.24 0 0 0.24 -77 -98)">
		</image>
	</g>
</g>
<g>
	<defs>
		<path id="SVGID_3_" d="M116.81,14.768c-0.39,0.542-0.883,0.979-1.483,1.311c-0.599,0.332-1.296,0.606-2.089,0.821
			c-0.794,0.216-1.562,0.366-2.305,0.45c-0.743,0.084-1.483,0.127-2.22,0.127c-0.226,0-0.389-0.005-0.492-0.016l0.553-0.916
			l0.43,0.015c4.2,0,6.299-1.327,6.299-3.979c0-0.768-0.184-1.153-0.553-1.153c-0.215,0-0.492,0.039-0.83,0.118
			c-0.338,0.08-0.792,0.25-1.36,0.514c-0.568,0.263-1.146,0.6-1.736,1.01c-0.589,0.411-1.242,0.995-1.959,1.753
			c-0.717,0.758-1.393,1.621-2.028,2.59c-1.875,2.526-3.373,4.625-4.495,6.293c-1.122,1.669-1.869,2.858-2.243,3.569
			c-0.374,0.711-0.886,1.64-1.537,2.787c-0.65,1.147-1.406,2.385-2.266,3.711c-1.229-0.569-2.166-0.964-2.812-1.185
			c0.471-0.779,1.232-2.073,2.281-3.884c1.05-1.811,1.872-3.201,2.466-4.169s1.419-2.171,2.474-3.608
			c1.055-1.438,2.141-2.74,3.257-3.909c0.399-0.442,0.635-0.694,0.707-0.758c0.584-0.6,1.239-1.193,1.966-1.777
			c0.728-0.584,1.567-1.185,2.52-1.801c0.953-0.615,1.982-1.112,3.088-1.492c1.106-0.379,2.172-0.568,3.196-0.568
			c1.168,0,1.752,0.769,1.752,2.305C117.394,13.612,117.199,14.226,116.81,14.768L116.81,14.768z M103.428,16.449
			c-0.113,0.127-0.195,0.227-0.246,0.301l-0.092,0.11c-1.372-0.221-2.768-0.514-4.186-0.876c-1.419-0.364-2.656-0.721-3.71-1.074
			c-1.055-0.353-2.016-0.689-2.882-1.011c-0.865-0.321-1.561-0.581-2.089-0.781c-0.527-0.2-0.847-0.3-0.96-0.3
			c-0.123,0-0.451,0.353-0.983,1.058c-0.533,0.706-1.096,1.484-1.69,2.337c-0.594,0.853-1.199,1.632-1.813,2.337
			c-0.615,0.706-1.056,1.058-1.322,1.058s-0.527-0.158-0.783-0.473c-0.256-0.316-0.559-0.811-0.906-1.484
			c3.104-3.854,4.86-6.007,5.27-6.46c0.471-0.526,0.824-0.805,1.06-0.836c0.062-0.011,0.148-0.016,0.262-0.016
			c0.389,0,0.812,0.105,1.267,0.316c0.456,0.211,0.914,0.481,1.375,0.813c0.461,0.332,1.078,0.713,1.852,1.146
			c0.773,0.431,1.613,0.855,2.52,1.271c0.906,0.416,2.094,0.829,3.564,1.239c1.47,0.411,3.081,0.742,4.832,0.995
			C103.653,16.213,103.541,16.324,103.428,16.449L103.428,16.449z M87.718,32.163c1.706,0.315,3.5,0.773,5.385,1.374
			c0.748,0.211,1.68,0.595,2.796,1.153c1.414,0.864,2.607,1.69,3.581,2.48c0.973,0.789,1.648,1.413,2.027,1.871
			c0.379,0.458,0.779,0.974,1.199,1.548c0.42,0.574,0.768,1.003,1.045,1.287c0.348,0.348,0.745,0.608,1.19,0.782
			s1.027,0.261,1.744,0.261c0.369,0,0.696-0.05,0.983-0.151c0.287-0.1,0.515-0.21,0.684-0.332c0.168-0.121,0.448-0.342,0.837-0.663
			c0.389-0.321,0.743-0.592,1.061-0.813c0.419,0,0.98,0.058,1.682,0.173c0.702,0.116,1.125,0.174,1.268,0.174
			c0.369,0,0.625-0.1,0.769-0.3l0.062,0.063c-0.308,0.663-0.832,1.227-1.575,1.689c-0.743,0.464-1.872,0.995-3.388,1.596
			c-0.42,0.189-1.563,0.284-3.426,0.284c-0.871,0-1.596-0.079-2.174-0.236c-0.579-0.158-1.042-0.395-1.391-0.711
			c-0.349-0.316-0.643-0.671-0.884-1.066s-0.512-0.863-0.814-1.406c-0.302-0.542-0.638-1.09-1.006-1.642
			c-0.369-0.553-0.912-1.169-1.629-1.848c-0.716-0.679-1.562-1.329-2.535-1.95c-0.892-0.496-1.803-0.938-2.735-1.327
			c-1.188-0.474-2.519-0.871-3.994-1.193c-1.476-0.321-2.625-0.529-3.449-0.623c-0.825-0.095-1.396-0.143-1.714-0.143
			c-0.687,0-1.367,0.029-2.043,0.087c-0.676,0.057-1.377,0.163-2.104,0.315c-0.728,0.153-1.408,0.345-2.044,0.576
			c-0.635,0.232-1.241,0.529-1.82,0.892c-0.579,0.364-1.073,0.78-1.483,1.248c-0.409,0.468-0.737,1.024-0.983,1.666
			c-0.246,0.643-0.369,1.348-0.369,2.116c0,0.19,0.041,0.424,0.123,0.703c0.082,0.279,0.259,0.624,0.53,1.034
			c0.271,0.411,0.623,0.784,1.052,1.122c0.431,0.337,1.045,0.626,1.844,0.869c0.799,0.242,1.71,0.363,2.735,0.363
			c0.88,0,1.856-0.205,2.926-0.616c1.071-0.41,2.087-0.923,3.05-1.54c0.962-0.616,1.921-1.305,2.873-2.068
			c0.953-0.764,1.772-1.477,2.459-2.14c0.686-0.664,1.27-1.273,1.751-1.832c0.327,0.126,0.712,0.311,1.152,0.553
			c0.441,0.242,0.804,0.453,1.091,0.631l0.416,0.269c-1.25,1.495-2.835,2.859-4.756,4.09c-1.921,1.232-3.841,2.175-5.761,2.827
			c-1.921,0.653-3.628,0.979-5.125,0.979c-1.588,0-3.116-0.247-4.586-0.742c-1.47-0.494-2.693-1.229-3.672-2.203
			c-0.978-0.974-1.467-2.066-1.467-3.277c0-0.421,0.043-0.829,0.13-1.224c0.087-0.395,0.25-0.823,0.491-1.288
			c0.241-0.462,0.556-0.889,0.946-1.278c0.389-0.39,0.916-0.769,1.583-1.138c0.666-0.368,1.433-0.681,2.304-0.939
			c0.871-0.257,1.934-0.465,3.188-0.624c1.254-0.158,2.64-0.236,4.156-0.236C84.073,31.689,86.012,31.847,87.718,32.163
			L87.718,32.163z M142.08,41.899c-0.262,0.395-0.456,0.681-0.584,0.86c-0.128,0.18-0.333,0.414-0.615,0.703
			c-0.282,0.29-0.545,0.502-0.791,0.639c-0.246,0.137-0.561,0.261-0.945,0.371c-0.385,0.11-0.802,0.166-1.252,0.166
			c-0.676,0-1.347-0.152-2.013-0.458c-0.666-0.306-1.131-0.79-1.397-1.453c0.164-0.148,0.327-0.319,0.491-0.514
			c0.164-0.194,0.32-0.4,0.469-0.616c0.148-0.215,0.286-0.426,0.415-0.631c0.128-0.205,0.253-0.413,0.376-0.624
			c0.123-0.21,0.22-0.387,0.292-0.529c0.071-0.143,0.143-0.281,0.214-0.419c0.072-0.137,0.113-0.21,0.123-0.221
			c-0.256,0.885-0.384,1.595-0.384,2.132c0,0.874,0.133,1.514,0.399,1.919c0.267,0.405,0.697,0.608,1.291,0.608
			c0.502,0,0.914-0.026,1.237-0.08c0.322-0.052,0.622-0.171,0.899-0.354c0.276-0.184,0.485-0.353,0.629-0.506
			c0.144-0.152,0.384-0.431,0.722-0.837c0.338-0.405,0.646-0.755,0.922-1.05l0.062,0.063
			C142.528,41.228,142.341,41.504,142.08,41.899L142.08,41.899z M138.092,35.321c-0.409,0.811-1.07,2.001-1.982,3.569
			c-0.912,1.569-1.485,2.469-1.721,2.701c-0.553,0.547-1.019,0.958-1.397,1.231c-1.68,1.211-3.57,1.816-5.67,1.816
			c-0.512,0-1.035-0.084-1.567-0.252c-0.532-0.168-1.052-0.426-1.559-0.774c-0.507-0.348-0.96-0.766-1.36-1.255
			c-0.399-0.489-0.719-1.084-0.96-1.785s-0.361-1.455-0.361-2.266c0-0.884,0.097-1.75,0.292-2.598
			c0.194-0.847,0.481-1.667,0.86-2.456c0.379-0.789,0.875-1.516,1.49-2.179c0.614-0.663,1.318-1.24,2.113-1.729
			c0.793-0.489,1.729-0.873,2.803-1.152c1.076-0.279,2.239-0.418,3.488-0.418c0.512,0.021,0.985,0.068,1.421,0.142
			c0.436,0.073,0.802,0.164,1.099,0.268c0.296,0.105,0.561,0.221,0.791,0.348c0.231,0.126,0.415,0.26,0.553,0.403
			c0.138,0.142,0.254,0.282,0.346,0.418c0.092,0.137,0.159,0.271,0.199,0.403c0.041,0.132,0.069,0.242,0.084,0.332
			c0.016,0.089,0.023,0.171,0.023,0.245v0.126c-0.092,0.263-0.305,0.758-0.638,1.484c-0.333,0.727-0.643,1.39-0.93,1.99
			l-0.445,0.884c0.337-1.105,0.507-2.063,0.507-2.874c0-2.242-0.958-3.364-2.874-3.364c-2.162,0-4.046,0.884-5.654,2.653
			c-0.502,0.505-0.943,1.037-1.322,1.595c-0.379,0.559-0.678,1.125-0.899,1.697c-0.22,0.575-0.399,1.096-0.537,1.564
			s-0.233,0.977-0.285,1.524c-0.051,0.547-0.082,0.958-0.092,1.231c-0.01,0.274-0.015,0.616-0.015,1.027
			c0,0.643,0.107,1.227,0.323,1.753c0.215,0.526,0.492,0.945,0.83,1.255c0.337,0.311,0.696,0.547,1.075,0.71
			c0.379,0.164,0.753,0.245,1.122,0.245c0.799,0,1.365-0.044,1.698-0.135c0.332-0.088,0.889-0.371,1.667-0.844
			c0.584-0.369,1.091-0.753,1.521-1.153c0.43-0.4,0.793-0.827,1.091-1.279c0.296-0.453,0.527-0.837,0.691-1.152
			c0.164-0.316,0.358-0.751,0.584-1.304c0.225-0.553,0.399-0.956,0.522-1.208c1.864-3.822,2.935-6.106,3.212-6.854
			c0.041-0.074,0.102-0.168,0.184-0.285c0.083-0.115,0.259-0.268,0.53-0.458c0.271-0.189,0.551-0.284,0.837-0.284
			c0.164,0,0.343,0.065,0.538,0.197c0.194,0.131,0.292,0.324,0.292,0.577c0,0.358-0.118,0.803-0.354,1.334
			C140.023,31.519,139.301,32.963,138.092,35.321L138.092,35.321z M163.277,17.911c-0.707,0.553-1.403,0.829-2.089,0.829
			c-0.297,0-0.545-0.055-0.746-0.166c-0.199-0.11-0.3-0.266-0.3-0.466c0-0.137,0.085-0.26,0.254-0.371
			c0.169-0.111,0.354-0.2,0.553-0.269c0.2-0.068,0.385-0.182,0.554-0.339c0.168-0.158,0.253-0.348,0.253-0.569
			c0-0.083-0.023-0.16-0.069-0.229c-0.046-0.068-0.103-0.129-0.169-0.181c-0.067-0.053-0.104-0.089-0.115-0.111
			c1.003-0.421,1.726-0.632,2.166-0.632c0.195,0,0.372,0.05,0.53,0.15c0.158,0.1,0.238,0.24,0.238,0.419
			C164.338,16.713,163.984,17.358,163.277,17.911L163.277,17.911z M158.953,32.068c-0.159,0.432-0.299,0.782-0.422,1.05
			c-0.123,0.268-0.318,0.655-0.584,1.161s-0.466,0.89-0.6,1.153c-0.081,0.105-0.151,0.224-0.207,0.355
			c-0.056,0.132-0.11,0.294-0.162,0.489c-0.051,0.195-0.091,0.334-0.123,0.418c-1.751,5.159-3.295,9.507-4.632,13.044
			c-1.336,3.537-3.06,7.88-5.17,13.029c-1.783,4.359-4.738,6.538-8.866,6.538c-0.727,0-1.395-0.047-2.005-0.142
			c-0.609-0.095-1.218-0.269-1.829-0.521c-0.608-0.252-1.154-0.513-1.635-0.782s-1.059-0.674-1.729-1.216
			c-0.67-0.542-1.268-1.047-1.79-1.516c-0.523-0.468-1.229-1.125-2.121-1.966c-0.337-0.358-0.776-0.818-1.313-1.382
			c-0.537-0.563-1.426-1.429-2.665-2.598c-1.24-1.168-2.223-2-2.95-2.495c-1.168-0.811-2.195-1.348-3.081-1.611
			c-0.886-0.263-1.852-0.395-2.896-0.395c-1.065,0-2.057,0.168-2.973,0.506c-0.917,0.336-1.683,0.784-2.297,1.342
			c-0.615,0.559-1.096,1.201-1.444,1.927c-0.348,0.726-0.522,1.484-0.522,2.273c0,0.305,0.031,0.593,0.093,0.861
			c0.061,0.269,0.123,0.479,0.184,0.631c0.062,0.153,0.093,0.245,0.093,0.276c0,0.242-0.179,0.364-0.538,0.364
			c-0.399,0-0.599-0.685-0.599-2.053c0-0.895,0.202-1.779,0.606-2.653c0.405-0.875,0.986-1.674,1.744-2.401
			c0.759-0.726,1.759-1.315,3.004-1.769c1.244-0.453,2.625-0.679,4.141-0.679c1.076,0,2.027,0.152,2.857,0.458
			c0.83,0.305,1.68,0.764,2.55,1.375c0.636,0.442,1.499,1.176,2.589,2.203c1.091,1.026,2.021,1.94,2.788,2.74l1.153,1.2
			c2.704,2.559,4.465,4.169,5.285,4.833c1.404,1.169,2.627,1.884,3.672,2.148c0.492,0.126,1.02,0.189,1.583,0.189
			c0.625,0,1.229-0.118,1.813-0.355c0.584-0.237,1.098-0.535,1.544-0.892c0.446-0.358,0.886-0.824,1.321-1.397
			c0.436-0.574,0.801-1.119,1.098-1.635c0.297-0.516,0.612-1.14,0.946-1.871c0.332-0.732,0.591-1.34,0.775-1.824
			c0.185-0.484,0.405-1.076,0.661-1.777c0.256-0.7,0.441-1.187,0.553-1.46c0.902-2.285,2.261-6.072,4.079-11.363
			c1.818-5.29,2.835-8.315,3.05-9.073c1.229-4.379,2.115-6.911,2.658-7.596c0.358-0.505,0.727-0.89,1.106-1.153
			c0.379-0.263,0.686-0.394,0.921-0.394c0.471,0,0.707,0.516,0.707,1.547c0,0.558-0.031,1.065-0.093,1.524
			C159.222,31.192,159.111,31.636,158.953,32.068L158.953,32.068z M152.277,36.695c-0.164,0.074-0.31,0.143-0.438,0.205
			c-0.128,0.063-0.272,0.159-0.431,0.284c-0.159,0.126-0.284,0.227-0.376,0.3c-0.092,0.074-0.241,0.218-0.446,0.435
			c-0.205,0.216-0.364,0.384-0.477,0.505c-0.112,0.121-0.323,0.35-0.63,0.687c-0.308,0.337-0.553,0.606-0.737,0.806l-0.077-0.047
			c0.625-0.947,1.175-1.703,1.652-2.266c0.476-0.563,0.832-0.932,1.068-1.105c0.235-0.174,0.55-0.369,0.945-0.584
			c0.394-0.215,0.714-0.413,0.96-0.592l-0.461,1.153C152.625,36.548,152.441,36.622,152.277,36.695L152.277,36.695z M186.734,41.899
			c-0.261,0.395-0.456,0.681-0.584,0.86c-0.128,0.18-0.333,0.414-0.614,0.703s-0.546,0.502-0.791,0.639
			c-0.246,0.137-0.562,0.261-0.945,0.371s-0.802,0.166-1.252,0.166c-0.676,0-1.347-0.152-2.013-0.458
			c-0.666-0.306-1.132-0.79-1.398-1.453c0.164-0.148,0.328-0.319,0.491-0.514c0.164-0.194,0.32-0.4,0.47-0.616
			c0.148-0.215,0.286-0.426,0.414-0.631s0.254-0.413,0.377-0.624c0.123-0.21,0.22-0.387,0.292-0.529
			c0.071-0.143,0.143-0.281,0.215-0.419c0.071-0.137,0.113-0.21,0.123-0.221c-0.256,0.885-0.384,1.595-0.384,2.132
			c0,0.874,0.132,1.514,0.399,1.919c0.266,0.405,0.695,0.608,1.29,0.608c0.502,0,0.914-0.026,1.237-0.08
			c0.322-0.052,0.622-0.171,0.898-0.354c0.276-0.184,0.486-0.353,0.63-0.506c0.144-0.152,0.384-0.431,0.722-0.837
			c0.339-0.405,0.646-0.755,0.923-1.05l0.061,0.063C187.183,41.228,186.996,41.504,186.734,41.899L186.734,41.899z M182.748,35.321
			c-0.41,0.811-1.071,2.001-1.982,3.569c-0.912,1.569-1.485,2.469-1.722,2.701c-0.553,0.547-1.019,0.958-1.397,1.231
			c-1.68,1.211-3.569,1.816-5.669,1.816c-0.513,0-1.035-0.084-1.567-0.252c-0.533-0.168-1.053-0.426-1.56-0.774
			s-0.96-0.766-1.359-1.255c-0.4-0.489-0.721-1.084-0.961-1.785c-0.241-0.7-0.36-1.455-0.36-2.266c0-0.884,0.097-1.75,0.291-2.598
			c0.195-0.847,0.481-1.667,0.86-2.456c0.379-0.789,0.877-1.516,1.491-2.179c0.614-0.663,1.318-1.24,2.112-1.729
			c0.794-0.489,1.729-0.873,2.804-1.152c1.076-0.279,2.238-0.418,3.487-0.418c0.513,0.021,0.986,0.068,1.422,0.142
			c0.435,0.073,0.801,0.164,1.099,0.268c0.296,0.105,0.561,0.221,0.791,0.348s0.415,0.26,0.554,0.403
			c0.138,0.142,0.253,0.282,0.345,0.418c0.093,0.137,0.159,0.271,0.2,0.403s0.069,0.242,0.085,0.332
			c0.015,0.089,0.022,0.171,0.022,0.245v0.126c-0.092,0.263-0.305,0.758-0.638,1.484s-0.643,1.39-0.929,1.99l-0.446,0.884
			c0.338-1.105,0.507-2.063,0.507-2.874c0-2.242-0.958-3.364-2.873-3.364c-2.161,0-4.046,0.884-5.654,2.653
			c-0.502,0.505-0.942,1.037-1.321,1.595c-0.379,0.559-0.679,1.125-0.898,1.697c-0.22,0.575-0.399,1.096-0.538,1.564
			c-0.138,0.468-0.232,0.977-0.284,1.524c-0.051,0.547-0.082,0.958-0.092,1.231c-0.011,0.274-0.016,0.616-0.016,1.027
			c0,0.643,0.107,1.227,0.322,1.753c0.216,0.526,0.492,0.945,0.83,1.255s0.696,0.547,1.076,0.71
			c0.379,0.164,0.752,0.245,1.121,0.245c0.799,0,1.364-0.044,1.697-0.135c0.333-0.088,0.889-0.371,1.667-0.844
			c0.584-0.369,1.091-0.753,1.521-1.153c0.43-0.4,0.794-0.827,1.091-1.279c0.297-0.453,0.527-0.837,0.691-1.152
			c0.164-0.316,0.358-0.751,0.584-1.304c0.225-0.553,0.399-0.956,0.522-1.208c1.864-3.822,2.935-6.106,3.211-6.854
			c0.041-0.074,0.103-0.168,0.184-0.285c0.083-0.115,0.26-0.268,0.53-0.458c0.271-0.189,0.551-0.284,0.838-0.284
			c0.164,0,0.343,0.065,0.538,0.197c0.194,0.131,0.291,0.324,0.291,0.577c0,0.358-0.117,0.803-0.353,1.334
			C184.678,31.519,183.956,32.963,182.748,35.321L182.748,35.321z M213.917,29.399c-0.221,0.295-0.483,0.577-0.791,0.845
			c-0.308,0.269-0.617,0.521-0.93,0.758c-0.313,0.237-0.576,0.424-0.791,0.561l-0.339,0.221c0.379-0.674,0.569-1.105,0.569-1.295
			c0-0.052-0.021-0.079-0.062-0.079c-0.031,0-0.077,0.018-0.139,0.055c-0.061,0.037-0.138,0.101-0.23,0.189
			c-0.092,0.09-0.179,0.174-0.261,0.253c-0.083,0.079-0.19,0.189-0.322,0.332c-0.134,0.142-0.242,0.258-0.323,0.348
			c-0.082,0.089-0.2,0.218-0.354,0.387c-0.153,0.168-0.261,0.284-0.323,0.347c-0.686,0.853-1.344,1.611-1.974,2.274
			c-0.63,0.664-1.501,1.535-2.612,2.614c-1.111,1.08-2.148,2.119-3.111,3.119c-0.061-0.031-0.184-0.1-0.368-0.205
			c-0.185-0.104-0.322-0.179-0.415-0.221c-0.092-0.042-0.223-0.097-0.392-0.166s-0.338-0.119-0.507-0.15
			c-0.169-0.032-0.346-0.047-0.53-0.047c0.03-0.032,0.988-0.972,2.873-2.819c1.885-1.848,3.555-3.562,5.009-5.14
			c1.239-1.338,2.063-2.18,2.474-2.527c0.891-0.779,1.787-1.184,2.688-1.216c0.051,0,0.103,0,0.153,0
			c0.41,0,0.735,0.077,0.977,0.229c0.24,0.153,0.36,0.346,0.36,0.577C214.247,28.853,214.138,29.104,213.917,29.399L213.917,29.399z
			 M202.501,30.844c-1.101-0.532-1.759-0.939-1.974-1.224c-0.145-0.158-0.261-0.255-0.354-0.292
			c-0.093-0.037-0.303-0.056-0.63-0.056c-0.522,0-1.175,0.484-1.959,1.453c-0.783,0.969-1.247,1.79-1.391,2.464l-0.246-0.111
			c0.062-0.232,0.172-0.54,0.33-0.924c0.159-0.384,0.387-0.837,0.685-1.358c0.297-0.521,0.622-1,0.976-1.437
			s0.781-0.811,1.282-1.122c0.502-0.311,1.009-0.465,1.521-0.465c0.369,0.042,0.687,0.205,0.952,0.49
			c0.267,0.284,0.492,0.61,0.677,0.979c0.184,0.369,0.316,0.59,0.399,0.664c0.614,0.621,1.874,1.131,3.779,1.532l-0.568,0.648
			C204.762,31.789,203.603,31.376,202.501,30.844L202.501,30.844z M199.067,40.265c0.297,0.01,0.584,0.055,0.86,0.134
			c0.276,0.079,0.494,0.158,0.653,0.237c0.158,0.079,0.396,0.203,0.714,0.371c0.063,0.032,0.325,0.19,0.792,0.474
			c0.466,0.284,0.894,0.532,1.282,0.742c0.39,0.211,0.848,0.448,1.376,0.71c0.527,0.263,1.026,0.469,1.498,0.616
			c0.471,0.148,0.875,0.221,1.214,0.221c0.316,0,0.63-0.094,0.937-0.284c0.308-0.189,0.559-0.4,0.753-0.631
			c0.194-0.232,0.394-0.442,0.599-0.632s0.374-0.285,0.507-0.285h0.77c0.256,0,0.458-0.044,0.606-0.134s0.438-0.355,0.868-0.798
			l0.076,0.063c-0.225,0.327-0.488,0.721-0.791,1.185c-0.302,0.463-0.518,0.784-0.646,0.963c-0.128,0.179-0.3,0.39-0.514,0.632
			c-0.216,0.242-0.421,0.402-0.615,0.481c-0.194,0.079-0.438,0.149-0.729,0.213c-0.292,0.063-0.644,0.095-1.053,0.095
			c-0.819,0-1.811-0.213-2.973-0.64c-1.163-0.426-2.692-1.192-4.587-2.297c-0.297-0.19-0.521-0.284-0.676-0.284
			c-0.144,0-0.215,0.084-0.215,0.252c0,0.147,0.076,0.406,0.229,0.773c-0.481,0.537-0.875,0.943-1.182,1.216
			c-0.309,0.274-0.661,0.505-1.061,0.695c-0.399,0.189-0.83,0.284-1.291,0.284c-0.133,0-0.292-0.016-0.476-0.047
			c-0.185-0.031-0.39-0.082-0.615-0.15c-0.225-0.068-0.415-0.182-0.568-0.34c-0.153-0.158-0.23-0.342-0.23-0.553
			c0-0.115,0.038-0.289,0.115-0.521c0.077-0.232,0.223-0.511,0.438-0.837c0.214-0.327,0.48-0.629,0.798-0.909
			c0.317-0.278,0.751-0.519,1.299-0.718C197.779,40.364,198.392,40.265,199.067,40.265L199.067,40.265z M250.825,37.422
			c-0.384,0.642-0.903,1.29-1.56,1.942c-0.655,0.653-1.449,1.297-2.381,1.935c-0.933,0.637-1.911,1.203-2.935,1.697
			c-1.025,0.496-2.137,0.893-3.334,1.193c-1.199,0.3-2.361,0.45-3.488,0.45c-2.223,0-3.591-0.637-4.103-1.911
			c0.164-0.148,0.328-0.319,0.492-0.514c0.163-0.194,0.319-0.4,0.469-0.616c0.148-0.215,0.286-0.426,0.414-0.631
			s0.254-0.413,0.377-0.624c0.123-0.21,0.22-0.387,0.292-0.529c0.071-0.143,0.143-0.281,0.215-0.419
			c0.071-0.137,0.113-0.21,0.123-0.221c-0.256,0.885-0.384,1.595-0.384,2.132c0,0.842,0.212,1.475,0.637,1.895
			c0.426,0.422,1.032,0.632,1.821,0.632c1.219,0,2.486-0.21,3.803-0.632c1.315-0.42,2.509-0.958,3.58-1.61
			c1.069-0.653,2.046-1.351,2.927-2.093c0.881-0.742,1.564-1.45,2.051-2.124s0.729-1.226,0.729-1.658
			c0-0.231-0.035-0.544-0.107-0.939c-0.071-0.395-0.107-0.64-0.107-0.735c0-0.104,0.047-0.158,0.139-0.158
			c0.194,0,0.395,0.184,0.599,0.553c0.205,0.369,0.308,0.795,0.308,1.279C251.401,36.211,251.209,36.78,250.825,37.422
			L250.825,37.422z M240.708,27.702c-0.799,1.5-1.629,3.03-2.489,4.588c-0.86,1.558-1.389,2.569-1.582,3.032
			c-0.267,0.643-0.884,1.785-1.852,3.427c-0.969,1.642-1.585,2.589-1.852,2.843c-0.554,0.547-1.02,0.958-1.398,1.231
			c-1.68,1.211-3.569,1.816-5.669,1.816c-0.513,0-1.035-0.084-1.567-0.252c-0.533-0.168-1.053-0.426-1.56-0.774
			s-0.96-0.766-1.359-1.255c-0.399-0.489-0.721-1.084-0.961-1.785c-0.241-0.7-0.36-1.455-0.36-2.266c0-0.884,0.097-1.75,0.291-2.598
			c0.195-0.847,0.481-1.667,0.861-2.456c0.378-0.789,0.876-1.516,1.49-2.179c0.614-0.663,1.318-1.24,2.112-1.729
			c0.794-0.489,1.729-0.873,2.804-1.152c1.076-0.279,2.238-0.418,3.488-0.418c0.512,0.021,0.985,0.068,1.421,0.142
			c0.435,0.073,0.802,0.164,1.099,0.268c0.297,0.105,0.561,0.221,0.791,0.348s0.415,0.26,0.554,0.403
			c0.138,0.142,0.253,0.282,0.345,0.418c0.093,0.137,0.159,0.271,0.2,0.403s0.069,0.242,0.085,0.332
			c0.015,0.089,0.022,0.171,0.022,0.245v0.126c-0.092,0.263-0.305,0.758-0.638,1.484s-0.643,1.39-0.929,1.99l-0.446,0.884
			c0.338-1.105,0.507-2.063,0.507-2.874c0-2.242-0.958-3.364-2.873-3.364c-1.966,0-3.831,0.958-5.592,2.874
			c-0.595,0.6-1.106,1.25-1.537,1.951c-0.43,0.7-0.751,1.329-0.96,1.887c-0.21,0.558-0.372,1.168-0.484,1.832
			c-0.113,0.663-0.179,1.168-0.199,1.516c-0.021,0.348-0.03,0.758-0.03,1.232c0,0.643,0.106,1.227,0.321,1.753
			c0.216,0.526,0.492,0.945,0.83,1.255s0.697,0.547,1.076,0.71c0.379,0.164,0.752,0.245,1.121,0.245
			c0.799,0,1.365-0.044,1.697-0.135c0.333-0.088,0.889-0.371,1.668-0.844c0.583-0.369,1.091-0.753,1.521-1.153
			c0.431-0.4,0.794-0.827,1.091-1.279c0.297-0.453,0.527-0.837,0.691-1.152c0.164-0.316,0.359-0.751,0.584-1.304
			c0.226-0.553,0.399-0.956,0.522-1.208c1.557-3.074,2.417-4.801,2.581-5.18c0.164-0.264,0.512-0.879,1.045-1.848
			c0.532-0.969,1.147-2.124,1.844-3.466c0.696-1.342,1.309-2.65,1.836-3.924c0.527-1.274,0.791-2.169,0.791-2.685
			c0-0.252-0.061-0.405-0.184-0.458c-0.175,0.105-0.364,0.276-0.569,0.513c-0.205,0.237-0.417,0.535-0.638,0.893
			c-0.22,0.358-0.43,0.721-0.63,1.089c-0.199,0.369-0.417,0.806-0.652,1.311c-0.236,0.506-0.44,0.953-0.615,1.342
			c-0.174,0.39-0.373,0.858-0.599,1.405c-0.226,0.548-0.397,0.972-0.515,1.271c-0.118,0.3-0.271,0.689-0.461,1.169
			c-0.189,0.479-0.305,0.771-0.347,0.876c-0.081-0.284-0.281-0.547-0.598-0.79c0.624-2.031,1.23-3.777,1.82-5.235
			c0.589-1.458,1.105-2.585,1.552-3.38c0.445-0.795,0.901-1.416,1.367-1.863s0.86-0.729,1.184-0.845
			c0.322-0.116,0.688-0.174,1.098-0.174c0.297,0,0.546,0.171,0.745,0.513c0.199,0.343,0.3,0.729,0.3,1.161
			c0,1.105-0.336,2.548-1.006,4.328C242.241,24.562,241.507,26.201,240.708,27.702L240.708,27.702z"/>
	</defs>
	<clipPath id="SVGID_4_">
		<use xlink:href="#SVGID_3_"  overflow="visible"/>
	</clipPath>
	<g transform="matrix(1 0 0 1 2.957681e-006 7.575154e-006)" clip-path="url(#SVGID_4_)">
		<image overflow="visible" width="2000" height="1500" xlink:href="88FA96AD.jpg"  transform="matrix(0.24 0 0 0.24 -77 -98)">
		</image>
	</g>
</g>
</svg>
